<svg width="25" height="24" viewBox="0 0 25 24" fill="none" xmlns="http://www.w3.org/2000/svg">
<path d="M4.5 19V17H6.5V10C6.5 8.61667 6.91667 7.39167 7.75 6.325C8.58333 5.24167 9.66667 4.53333 11 4.2V3.5C11 3.08333 11.1417 2.73333 11.425 2.45C11.725 2.15 12.0833 2 12.5 2C12.9167 2 13.2667 2.15 13.55 2.45C13.85 2.73333 14 3.08333 14 3.5V4.2C15.3333 4.53333 16.4167 5.24167 17.25 6.325C18.0833 7.39167 18.5 8.61667 18.5 10V17H20.5V19H4.5ZM12.5 22C11.95 22 11.475 21.8083 11.075 21.425C10.6917 21.025 10.5 20.55 10.5 20H14.5C14.5 20.55 14.3 21.025 13.9 21.425C13.5167 21.8083 13.05 22 12.5 22ZM8.5 17H16.5V10C16.5 8.9 16.1083 7.95833 15.325 7.175C14.5417 6.39167 13.6 6 12.5 6C11.4 6 10.4583 6.39167 9.675 7.175C8.89167 7.95833 8.5 8.9 8.5 10V17Z" fill="#49454F"/>
</svg>
